<svg xmlns="http://www.w3.org/2000/svg" xmlns:xlink="http://www.w3.org/1999/xlink" contentStyleType="text/css" height="1067px" preserveAspectRatio="none" style="width:1508px;height:1067px;background:#FFFFFF;" version="1.1" viewBox="0 0 1508 1067" width="1508px" zoomAndPan="magnify"><defs/><g><text fill="#243746" font-family="Arial" font-size="16" font-weight="bold" lengthAdjust="spacing" textLength="358" x="576.5" y="30.0078">Tr&#236;nh t&#7921; &#273;&#243;ng phi&#234;n, quy&#7871;t to&#225;n c&#7885;c v&#224; t&#7841;o &#273;&#417;n</text><rect fill="#F8FAFB" height="750.166" rx="3" ry="3" style="stroke:#77838C;stroke-width:1.5;" width="1492" x="10" y="176.7949"/><rect fill="#F8FAFB" height="636.9707" rx="3" ry="3" style="stroke:#77838C;stroke-width:1.5;" width="1472" x="20" y="282.9902"/><path d="M20,382.1855 L1492,382.1855 L1492,916.9609 A3,3 0 0 1 1489,919.9609 L23,919.9609 A3,3 0 0 1 20,916.9609 L20,382.1855 " fill="#F8FAFB" style="stroke:none;stroke-width:1.0;"/><rect fill="#F8FAFB" height="114.9941" rx="3" ry="3" style="stroke:#77838C;stroke-width:1.5;" width="454" x="194" y="404.9844"/><path d="M194,448.582 L648,448.582 L648,516.9785 A3,3 0 0 1 645,519.9785 L197,519.9785 A3,3 0 0 1 194,516.9785 L194,448.582 " fill="#F8FAFB" style="stroke:none;stroke-width:1.0;"/><rect fill="#F8FAFB" height="112.9941" rx="3" ry="3" style="stroke:#77838C;stroke-width:1.5;" width="653" x="584" y="658.9727"/><rect fill="#F8FAFB" height="71.3965" rx="3" ry="3" style="stroke:#77838C;stroke-width:1.5;" width="748" x="584" y="785.9668"/><line style="stroke:#77838C;stroke-width:0.5;stroke-dasharray:5.0,5.0;" x1="108" x2="108" y1="104.1973" y2="991.5586"/><line style="stroke:#77838C;stroke-width:0.5;stroke-dasharray:5.0,5.0;" x1="297" x2="297" y1="104.1973" y2="991.5586"/><line style="stroke:#77838C;stroke-width:0.5;stroke-dasharray:5.0,5.0;" x1="487.5" x2="487.5" y1="104.1973" y2="991.5586"/><line style="stroke:#77838C;stroke-width:0.5;stroke-dasharray:5.0,5.0;" x1="616" x2="616" y1="104.1973" y2="991.5586"/><line style="stroke:#77838C;stroke-width:0.5;stroke-dasharray:5.0,5.0;" x1="807.5" x2="807.5" y1="104.1973" y2="991.5586"/><line style="stroke:#77838C;stroke-width:0.5;stroke-dasharray:5.0,5.0;" x1="1015.5" x2="1015.5" y1="104.1973" y2="991.5586"/><line style="stroke:#77838C;stroke-width:0.5;stroke-dasharray:5.0,5.0;" x1="1183" x2="1183" y1="104.1973" y2="991.5586"/><line style="stroke:#77838C;stroke-width:0.5;stroke-dasharray:5.0,5.0;" x1="1279" x2="1279" y1="104.1973" y2="991.5586"/><line style="stroke:#77838C;stroke-width:0.5;stroke-dasharray:5.0,5.0;" x1="1407" x2="1407" y1="104.1973" y2="991.5586"/><rect fill="#F8FAFB" height="27.7988" rx="3" ry="3" style="stroke:#60717E;stroke-width:0.5;" width="156" x="30" y="75.3984"/><text fill="#1F2933" font-family="Arial" font-size="12" lengthAdjust="spacing" textLength="142" x="37" y="93.6543">AuctionSessionScheduler</text><rect fill="#F8FAFB" height="27.7988" rx="3" ry="3" style="stroke:#60717E;stroke-width:0.5;" width="156" x="30" y="990.5586"/><text fill="#1F2933" font-family="Arial" font-size="12" lengthAdjust="spacing" textLength="142" x="37" y="1008.8145">AuctionSessionScheduler</text><rect fill="#F8FAFB" height="27.7988" rx="3" ry="3" style="stroke:#60717E;stroke-width:0.5;" width="186" x="204" y="75.3984"/><text fill="#1F2933" font-family="Arial" font-size="12" lengthAdjust="spacing" textLength="172" x="211" y="93.6543">AuctionSessionLifecycleWorker</text><rect fill="#F8FAFB" height="27.7988" rx="3" ry="3" style="stroke:#60717E;stroke-width:0.5;" width="186" x="204" y="990.5586"/><text fill="#1F2933" font-family="Arial" font-size="12" lengthAdjust="spacing" textLength="172" x="211" y="1008.8145">AuctionSessionLifecycleWorker</text><rect fill="#F8FAFB" height="27.7988" rx="3" ry="3" style="stroke:#60717E;stroke-width:0.5;" width="127" x="424.5" y="75.3984"/><text fill="#1F2933" font-family="Arial" font-size="12" lengthAdjust="spacing" textLength="113" x="431.5" y="93.6543">AuctionRedisService</text><rect fill="#F8FAFB" height="27.7988" rx="3" ry="3" style="stroke:#60717E;stroke-width:0.5;" width="127" x="424.5" y="990.5586"/><text fill="#1F2933" font-family="Arial" font-size="12" lengthAdjust="spacing" textLength="113" x="431.5" y="1008.8145">AuctionRedisService</text><text fill="#264936" font-family="Arial" font-size="12" lengthAdjust="spacing" textLength="38" x="594" y="101.6543">MySQL</text><path d="M598,54.3984 C598,44.3984 616,44.3984 616,44.3984 C616,44.3984 634,44.3984 634,54.3984 L634,80.3984 C634,90.3984 616,90.3984 616,90.3984 C616,90.3984 598,90.3984 598,80.3984 L598,54.3984 " fill="#EAF4EE" style="stroke:#4F7461;stroke-width:1.5;"/><path d="M598,54.3984 C598,64.3984 616,64.3984 616,64.3984 C616,64.3984 634,64.3984 634,54.3984 " fill="none" style="stroke:#4F7461;stroke-width:1.5;"/><text fill="#264936" font-family="Arial" font-size="12" lengthAdjust="spacing" textLength="38" x="594" y="1001.8145">MySQL</text><path d="M598,1014.3574 C598,1004.3574 616,1004.3574 616,1004.3574 C616,1004.3574 634,1004.3574 634,1014.3574 L634,1040.3574 C634,1050.3574 616,1050.3574 616,1050.3574 C616,1050.3574 598,1050.3574 598,1040.3574 L598,1014.3574 " fill="#EAF4EE" style="stroke:#4F7461;stroke-width:1.5;"/><path d="M598,1014.3574 C598,1024.3574 616,1024.3574 616,1024.3574 C616,1024.3574 634,1024.3574 634,1014.3574 " fill="none" style="stroke:#4F7461;stroke-width:1.5;"/><rect fill="#F8FAFB" height="27.7988" rx="3" ry="3" style="stroke:#60717E;stroke-width:0.5;" width="153" x="731.5" y="75.3984"/><text fill="#1F2933" font-family="Arial" font-size="12" lengthAdjust="spacing" textLength="139" x="738.5" y="93.6543">AuctionSettlementService</text><rect fill="#F8FAFB" height="27.7988" rx="3" ry="3" style="stroke:#60717E;stroke-width:0.5;" width="153" x="731.5" y="990.5586"/><text fill="#1F2933" font-family="Arial" font-size="12" lengthAdjust="spacing" textLength="139" x="738.5" y="1008.8145">AuctionSettlementService</text><rect fill="#F8FAFB" height="27.7988" rx="3" ry="3" style="stroke:#60717E;stroke-width:0.5;" width="171" x="930.5" y="75.3984"/><text fill="#1F2933" font-family="Arial" font-size="12" lengthAdjust="spacing" textLength="157" x="937.5" y="93.6543">ParticipantSettlementService</text><rect fill="#F8FAFB" height="27.7988" rx="3" ry="3" style="stroke:#60717E;stroke-width:0.5;" width="171" x="930.5" y="990.5586"/><text fill="#1F2933" font-family="Arial" font-size="12" lengthAdjust="spacing" textLength="157" x="937.5" y="1008.8145">ParticipantSettlementService</text><rect fill="#F8FAFB" height="27.7988" rx="3" ry="3" style="stroke:#60717E;stroke-width:0.5;" width="88" x="1139" y="75.3984"/><text fill="#1F2933" font-family="Arial" font-size="12" lengthAdjust="spacing" textLength="74" x="1146" y="93.6543">WalletService</text><rect fill="#F8FAFB" height="27.7988" rx="3" ry="3" style="stroke:#60717E;stroke-width:0.5;" width="88" x="1139" y="990.5586"/><text fill="#1F2933" font-family="Arial" font-size="12" lengthAdjust="spacing" textLength="74" x="1146" y="1008.8145">WalletService</text><rect fill="#F8FAFB" height="27.7988" rx="3" ry="3" style="stroke:#60717E;stroke-width:0.5;" width="85" x="1237" y="75.3984"/><text fill="#1F2933" font-family="Arial" font-size="12" lengthAdjust="spacing" textLength="71" x="1244" y="93.6543">OrderService</text><rect fill="#F8FAFB" height="27.7988" rx="3" ry="3" style="stroke:#60717E;stroke-width:0.5;" width="85" x="1237" y="990.5586"/><text fill="#1F2933" font-family="Arial" font-size="12" lengthAdjust="spacing" textLength="71" x="1244" y="1008.8145">OrderService</text><rect fill="#F8FAFB" height="27.7988" rx="3" ry="3" style="stroke:#60717E;stroke-width:0.5;" width="150" x="1332" y="75.3984"/><text fill="#1F2933" font-family="Arial" font-size="12" lengthAdjust="spacing" textLength="136" x="1339" y="93.6543">AuctionBroadcastService</text><rect fill="#F8FAFB" height="27.7988" rx="3" ry="3" style="stroke:#60717E;stroke-width:0.5;" width="150" x="1332" y="990.5586"/><text fill="#1F2933" font-family="Arial" font-size="12" lengthAdjust="spacing" textLength="136" x="1339" y="1008.8145">AuctionBroadcastService</text><polygon fill="#46525E" points="604,129.9961,614,133.9961,604,137.9961,608,133.9961" style="stroke:#46525E;stroke-width:1.0;"/><line style="stroke:#46525E;stroke-width:1.0;" x1="108" x2="610" y1="133.9961" y2="133.9961"/><text fill="#1F2933" font-family="Arial" font-size="12" font-weight="bold" lengthAdjust="spacing" textLength="7" x="115" y="129.4531">1</text><text fill="#1F2933" font-family="Arial" font-size="12" lengthAdjust="spacing" textLength="157" x="126" y="129.4531">t&#236;m session ACTIVE &#273;&#7871;n h&#7841;n</text><polygon fill="#46525E" points="119,157.7949,109,161.7949,119,165.7949,115,161.7949" style="stroke:#46525E;stroke-width:1.0;"/><line style="stroke:#46525E;stroke-width:1.0;stroke-dasharray:2.0,2.0;" x1="113" x2="615" y1="161.7949" y2="161.7949"/><text fill="#1F2933" font-family="Arial" font-size="12" font-weight="bold" lengthAdjust="spacing" textLength="7" x="125" y="157.252">2</text><text fill="#1F2933" font-family="Arial" font-size="12" lengthAdjust="spacing" textLength="116" x="136" y="157.252">danh s&#225;ch sessionId</text><path d="M13,176.7949 L79,176.7949 L79,182.5938 L69,192.5938 L10,192.5938 L10,179.7949 A3,3 0 0 1 13,176.7949 " fill="#F7F8F9" style="stroke:#77838C;stroke-width:1.5;"/><rect fill="none" height="750.166" rx="3" ry="3" style="stroke:#77838C;stroke-width:1.5;" width="1492" x="10" y="176.7949"/><text fill="#1F2933" font-family="Arial" font-size="12" font-weight="bold" lengthAdjust="spacing" textLength="24" x="25" y="189.0508">loop</text><text fill="#1F2933" font-family="Arial" font-size="12" font-weight="bold" lengthAdjust="spacing" textLength="86" x="94" y="190.0508">[M&#7895;i sessionId]</text><polygon fill="#46525E" points="285,208.3926,295,212.3926,285,216.3926,289,212.3926" style="stroke:#46525E;stroke-width:1.0;"/><line style="stroke:#46525E;stroke-width:1.0;" x1="108" x2="291" y1="212.3926" y2="212.3926"/><text fill="#1F2933" font-family="Arial" font-size="12" font-weight="bold" lengthAdjust="spacing" textLength="7" x="115" y="207.8496">3</text><text fill="#1F2933" font-family="Arial" font-size="12" lengthAdjust="spacing" textLength="154" x="126" y="207.8496">finalizeDueSession(id, now)</text><polygon fill="#46525E" points="604,236.1914,614,240.1914,604,244.1914,608,240.1914" style="stroke:#46525E;stroke-width:1.0;"/><line style="stroke:#46525E;stroke-width:1.0;" x1="297" x2="610" y1="240.1914" y2="240.1914"/><text fill="#1F2933" font-family="Arial" font-size="12" font-weight="bold" lengthAdjust="spacing" textLength="7" x="304" y="235.6484">4</text><text fill="#1F2933" font-family="Arial" font-size="12" lengthAdjust="spacing" textLength="195" x="315" y="235.6484">kh&#243;a AuctionSession FOR UPDATE</text><polygon fill="#46525E" points="476,263.9902,486,267.9902,476,271.9902,480,267.9902" style="stroke:#46525E;stroke-width:1.0;"/><line style="stroke:#46525E;stroke-width:1.0;" x1="297" x2="482" y1="267.9902" y2="267.9902"/><text fill="#1F2933" font-family="Arial" font-size="12" font-weight="bold" lengthAdjust="spacing" textLength="7" x="304" y="263.4473">5</text><text fill="#1F2933" font-family="Arial" font-size="12" lengthAdjust="spacing" textLength="109" x="315" y="263.4473">getSessionState(id)</text><path d="M23,282.9902 L79,282.9902 L79,288.7891 L69,298.7891 L20,298.7891 L20,285.9902 A3,3 0 0 1 23,282.9902 " fill="#F7F8F9" style="stroke:#77838C;stroke-width:1.5;"/><rect fill="none" height="636.9707" rx="3" ry="3" style="stroke:#77838C;stroke-width:1.5;" width="1472" x="20" y="282.9902"/><text fill="#1F2933" font-family="Arial" font-size="12" font-weight="bold" lengthAdjust="spacing" textLength="14" x="35" y="295.2461">alt</text><text fill="#1F2933" font-family="Arial" font-size="12" font-weight="bold" lengthAdjust="spacing" textLength="183" x="94" y="296.2461">[Redis endTime c&#242;n &#7903; t&#432;&#417;ng lai]</text><polygon fill="#46525E" points="308,314.5879,298,318.5879,308,322.5879,304,318.5879" style="stroke:#46525E;stroke-width:1.0;"/><line style="stroke:#46525E;stroke-width:1.0;stroke-dasharray:2.0,2.0;" x1="302" x2="487" y1="318.5879" y2="318.5879"/><text fill="#1F2933" font-family="Arial" font-size="12" font-weight="bold" lengthAdjust="spacing" textLength="7" x="314" y="314.0449">6</text><text fill="#1F2933" font-family="Arial" font-size="12" lengthAdjust="spacing" textLength="145" x="325" y="314.0449">snapshot &#273;&#227; &#273;&#432;&#7907;c gia h&#7841;n</text><polygon fill="#46525E" points="604,342.3867,614,346.3867,604,350.3867,608,346.3867" style="stroke:#46525E;stroke-width:1.0;"/><line style="stroke:#46525E;stroke-width:1.0;" x1="297" x2="610" y1="346.3867" y2="346.3867"/><text fill="#1F2933" font-family="Arial" font-size="12" font-weight="bold" lengthAdjust="spacing" textLength="7" x="304" y="341.8438">7</text><text fill="#1F2933" font-family="Arial" font-size="12" lengthAdjust="spacing" textLength="180" x="315" y="341.8438">&#273;&#7891;ng b&#7897; snapshot v&#224; gi&#7919; ACTIVE</text><polygon fill="#46525E" points="119,370.1855,109,374.1855,119,378.1855,115,374.1855" style="stroke:#46525E;stroke-width:1.0;"/><line style="stroke:#46525E;stroke-width:1.0;stroke-dasharray:2.0,2.0;" x1="113" x2="296" y1="374.1855" y2="374.1855"/><text fill="#1F2933" font-family="Arial" font-size="12" font-weight="bold" lengthAdjust="spacing" textLength="7" x="125" y="369.6426">8</text><text fill="#1F2933" font-family="Arial" font-size="12" lengthAdjust="spacing" textLength="90" x="136" y="369.6426">Optional.empty()</text><line style="stroke:#77838C;stroke-width:1.0;stroke-dasharray:2.0,2.0;" x1="20" x2="1492" y1="383.1855" y2="383.1855"/><text fill="#1F2933" font-family="Arial" font-size="12" font-weight="bold" lengthAdjust="spacing" textLength="72" x="25" y="394.4414">[&#272;&#227; &#273;&#7871;n h&#7841;n]</text><path d="M197,404.9844 L253,404.9844 L253,410.7832 L243,420.7832 L194,420.7832 L194,407.9844 A3,3 0 0 1 197,404.9844 " fill="#F7F8F9" style="stroke:#77838C;stroke-width:1.5;"/><rect fill="none" height="114.9941" rx="3" ry="3" style="stroke:#77838C;stroke-width:1.5;" width="454" x="194" y="404.9844"/><text fill="#1F2933" font-family="Arial" font-size="12" font-weight="bold" lengthAdjust="spacing" textLength="14" x="209" y="417.2402">alt</text><text fill="#1F2933" font-family="Arial" font-size="12" font-weight="bold" lengthAdjust="spacing" textLength="90" x="268" y="418.2402">[C&#243; state Redis]</text><polygon fill="#46525E" points="308,436.582,298,440.582,308,444.582,304,440.582" style="stroke:#46525E;stroke-width:1.0;"/><line style="stroke:#46525E;stroke-width:1.0;stroke-dasharray:2.0,2.0;" x1="302" x2="487" y1="440.582" y2="440.582"/><text fill="#1F2933" font-family="Arial" font-size="12" font-weight="bold" lengthAdjust="spacing" textLength="7" x="314" y="436.0391">9</text><text fill="#1F2933" font-family="Arial" font-size="12" lengthAdjust="spacing" textLength="156" x="325" y="436.0391">gi&#225;, bidder, traceId, endTime</text><line style="stroke:#77838C;stroke-width:1.0;stroke-dasharray:2.0,2.0;" x1="194" x2="648" y1="449.582" y2="449.582"/><text fill="#1F2933" font-family="Arial" font-size="12" font-weight="bold" lengthAdjust="spacing" textLength="96" x="199" y="460.8379">[M&#7845;t state Redis]</text><polygon fill="#46525E" points="308,480.1797,298,484.1797,308,488.1797,304,484.1797" style="stroke:#46525E;stroke-width:1.0;"/><line style="stroke:#46525E;stroke-width:1.0;stroke-dasharray:2.0,2.0;" x1="302" x2="487" y1="484.1797" y2="484.1797"/><text fill="#1F2933" font-family="Arial" font-size="12" font-weight="bold" lengthAdjust="spacing" textLength="14" x="314" y="479.6367">10</text><text fill="#1F2933" font-family="Arial" font-size="12" lengthAdjust="spacing" textLength="25" x="332" y="479.6367">r&#7895;ng</text><polygon fill="#46525E" points="604,507.9785,614,511.9785,604,515.9785,608,511.9785" style="stroke:#46525E;stroke-width:1.0;"/><line style="stroke:#46525E;stroke-width:1.0;" x1="297" x2="610" y1="511.9785" y2="511.9785"/><text fill="#1F2933" font-family="Arial" font-size="12" font-weight="bold" lengthAdjust="spacing" textLength="14" x="304" y="507.4355">11</text><text fill="#1F2933" font-family="Arial" font-size="12" lengthAdjust="spacing" textLength="196" x="322" y="507.4355">&#273;&#7885;c snapshot v&#224; bid VALID cao nh&#7845;t</text><polygon fill="#46525E" points="604,556.5762,614,560.5762,604,564.5762,608,560.5762" style="stroke:#46525E;stroke-width:1.0;"/><line style="stroke:#46525E;stroke-width:1.0;" x1="297" x2="610" y1="560.5762" y2="560.5762"/><text fill="#1F2933" font-family="Arial" font-size="12" font-weight="bold" lengthAdjust="spacing" textLength="14" x="304" y="549.1338">12</text><text fill="#1F2933" font-family="Arial" font-size="12" lengthAdjust="spacing" textLength="277" x="322" y="542.2344">commit ENDED_SUCCESS ho&#7863;c ENDED_FAILED</text><text fill="#1F2933" font-family="Arial" font-size="12" lengthAdjust="spacing" textLength="172" x="322" y="556.0332">v&#224; tr&#7841;ng th&#225;i b&#225;n c&#7911;a s&#7843;n ph&#7849;m</text><polygon fill="#46525E" points="119,584.375,109,588.375,119,592.375,115,588.375" style="stroke:#46525E;stroke-width:1.0;"/><line style="stroke:#46525E;stroke-width:1.0;stroke-dasharray:2.0,2.0;" x1="113" x2="296" y1="588.375" y2="588.375"/><text fill="#1F2933" font-family="Arial" font-size="12" font-weight="bold" lengthAdjust="spacing" textLength="14" x="125" y="583.832">13</text><text fill="#1F2933" font-family="Arial" font-size="12" lengthAdjust="spacing" textLength="69" x="143" y="583.832">CloseResult</text><polygon fill="#46525E" points="796,612.1738,806,616.1738,796,620.1738,800,616.1738" style="stroke:#46525E;stroke-width:1.0;"/><line style="stroke:#46525E;stroke-width:1.0;" x1="108" x2="802" y1="616.1738" y2="616.1738"/><text fill="#1F2933" font-family="Arial" font-size="12" font-weight="bold" lengthAdjust="spacing" textLength="14" x="115" y="611.6309">14</text><text fill="#1F2933" font-family="Arial" font-size="12" lengthAdjust="spacing" textLength="164" x="133" y="611.6309">settleFinalizedSession(result)</text><polygon fill="#46525E" points="627,639.9727,617,643.9727,627,647.9727,623,643.9727" style="stroke:#46525E;stroke-width:1.0;"/><line style="stroke:#46525E;stroke-width:1.0;" x1="621" x2="807" y1="643.9727" y2="643.9727"/><text fill="#1F2933" font-family="Arial" font-size="12" font-weight="bold" lengthAdjust="spacing" textLength="14" x="633" y="639.4297">15</text><text fill="#1F2933" font-family="Arial" font-size="12" lengthAdjust="spacing" textLength="150" x="651" y="639.4297">l&#7845;y participant c&#242;n FROZEN</text><path d="M587,658.9727 L653,658.9727 L653,664.7715 L643,674.7715 L584,674.7715 L584,661.9727 A3,3 0 0 1 587,658.9727 " fill="#F7F8F9" style="stroke:#77838C;stroke-width:1.5;"/><rect fill="none" height="112.9941" rx="3" ry="3" style="stroke:#77838C;stroke-width:1.5;" width="653" x="584" y="658.9727"/><text fill="#1F2933" font-family="Arial" font-size="12" font-weight="bold" lengthAdjust="spacing" textLength="24" x="599" y="671.2285">loop</text><text fill="#1F2933" font-family="Arial" font-size="12" font-weight="bold" lengthAdjust="spacing" textLength="102" x="668" y="672.2285">[T&#7915;ng participant]</text><polygon fill="#46525E" points="1004,690.5703,1014,694.5703,1004,698.5703,1008,694.5703" style="stroke:#46525E;stroke-width:1.0;"/><line style="stroke:#46525E;stroke-width:1.0;" x1="808" x2="1010" y1="694.5703" y2="694.5703"/><text fill="#1F2933" font-family="Arial" font-size="12" font-weight="bold" lengthAdjust="spacing" textLength="14" x="815" y="690.0273">16</text><text fill="#1F2933" font-family="Arial" font-size="12" lengthAdjust="spacing" textLength="166" x="833" y="690.0273">settleOneParticipant(id, result)</text><polygon fill="#46525E" points="1171,732.168,1181,736.168,1171,740.168,1175,736.168" style="stroke:#46525E;stroke-width:1.0;"/><line style="stroke:#46525E;stroke-width:1.0;" x1="1016" x2="1177" y1="736.168" y2="736.168"/><text fill="#1F2933" font-family="Arial" font-size="12" font-weight="bold" lengthAdjust="spacing" textLength="14" x="1023" y="724.7256">17</text><text fill="#1F2933" font-family="Arial" font-size="12" lengthAdjust="spacing" textLength="103" x="1041" y="717.8262">capture c&#7885;c winner</text><text fill="#1F2933" font-family="Arial" font-size="12" lengthAdjust="spacing" textLength="125" x="1041" y="731.625">ho&#7863;c release c&#7885;c loser</text><polygon fill="#46525E" points="627,759.9668,617,763.9668,627,767.9668,623,763.9668" style="stroke:#46525E;stroke-width:1.0;"/><line style="stroke:#46525E;stroke-width:1.0;" x1="621" x2="1182" y1="763.9668" y2="763.9668"/><text fill="#1F2933" font-family="Arial" font-size="12" font-weight="bold" lengthAdjust="spacing" textLength="14" x="633" y="759.4238">18</text><text fill="#1F2933" font-family="Arial" font-size="12" lengthAdjust="spacing" textLength="104" x="651" y="759.4238">transaction &#273;&#7897;c l&#7853;p</text><path d="M587,785.9668 L643,785.9668 L643,791.7656 L633,801.7656 L584,801.7656 L584,788.9668 A3,3 0 0 1 587,785.9668 " fill="#F7F8F9" style="stroke:#77838C;stroke-width:1.5;"/><rect fill="none" height="71.3965" rx="3" ry="3" style="stroke:#77838C;stroke-width:1.5;" width="748" x="584" y="785.9668"/><text fill="#1F2933" font-family="Arial" font-size="12" font-weight="bold" lengthAdjust="spacing" textLength="14" x="599" y="798.2227">alt</text><text fill="#1F2933" font-family="Arial" font-size="12" font-weight="bold" lengthAdjust="spacing" textLength="232" x="658" y="799.2227">[Phi&#234;n th&#224;nh c&#244;ng v&#224; kh&#244;ng c&#242;n FROZEN]</text><polygon fill="#46525E" points="1267.5,817.5645,1277.5,821.5645,1267.5,825.5645,1271.5,821.5645" style="stroke:#46525E;stroke-width:1.0;"/><line style="stroke:#46525E;stroke-width:1.0;" x1="808" x2="1273.5" y1="821.5645" y2="821.5645"/><text fill="#1F2933" font-family="Arial" font-size="12" font-weight="bold" lengthAdjust="spacing" textLength="14" x="815" y="817.0215">19</text><text fill="#1F2933" font-family="Arial" font-size="12" lengthAdjust="spacing" textLength="224" x="833" y="817.0215">createFromSource(AUCTION, sessionId)</text><polygon fill="#46525E" points="627,845.3633,617,849.3633,627,853.3633,623,849.3633" style="stroke:#46525E;stroke-width:1.0;"/><line style="stroke:#46525E;stroke-width:1.0;" x1="621" x2="1278.5" y1="849.3633" y2="849.3633"/><text fill="#1F2933" font-family="Arial" font-size="12" font-weight="bold" lengthAdjust="spacing" textLength="14" x="633" y="844.8203">20</text><text fill="#1F2933" font-family="Arial" font-size="12" lengthAdjust="spacing" textLength="218" x="651" y="844.8203">t&#7841;o duy nh&#7845;t order PENDING_PAYMENT</text><polygon fill="#46525E" points="499,880.1621,489,884.1621,499,888.1621,495,884.1621" style="stroke:#46525E;stroke-width:1.0;"/><line style="stroke:#46525E;stroke-width:1.0;" x1="493" x2="807" y1="884.1621" y2="884.1621"/><text fill="#1F2933" font-family="Arial" font-size="12" font-weight="bold" lengthAdjust="spacing" textLength="14" x="505" y="879.6191">21</text><text fill="#1F2933" font-family="Arial" font-size="12" lengthAdjust="spacing" textLength="136" x="523" y="879.6191">d&#7885;n state theo best-effort</text><polygon fill="#46525E" points="1395,907.9609,1405,911.9609,1395,915.9609,1399,911.9609" style="stroke:#46525E;stroke-width:1.0;"/><line style="stroke:#46525E;stroke-width:1.0;" x1="108" x2="1401" y1="911.9609" y2="911.9609"/><text fill="#1F2933" font-family="Arial" font-size="12" font-weight="bold" lengthAdjust="spacing" textLength="14" x="115" y="907.418">22</text><text fill="#1F2933" font-family="Arial" font-size="12" lengthAdjust="spacing" textLength="103" x="133" y="907.418">SESSION_ENDED</text><path d="M50,941.9609 L50,972.9609 A3,3 0 0 0 53,975.9609 L1334,975.9609 A3,3 0 0 0 1337,972.9609 L1337,948.9609 L1327,938.9609 L53,938.9609 A3,3 0 0 0 50,941.9609 " fill="#FFF9E8" style="stroke:#A58B4E;stroke-width:0.5;"/><path d="M1327,938.9609 L1327,947.4609 A1.5,1.5 0 0 0 1328.5,948.9609 L1337,948.9609 L1327,938.9609 " fill="#FFF9E8" style="stroke:#A58B4E;stroke-width:0.5;"/><text fill="#4B4234" font-family="Arial" font-size="12" lengthAdjust="spacing" textLength="328" x="525" y="955.2168">Scheduler s&#7917;a ch&#7919;a ch&#7841;y &#273;&#7883;nh k&#7923; &#273;&#7875; x&#7917; l&#253; participant c&#242;n s&#243;t</text><text fill="#4B4234" font-family="Arial" font-size="12" lengthAdjust="spacing" textLength="304" x="525" y="969.0156">ho&#7863;c t&#7841;o l&#7841;i order n&#7871;u b&#432;&#7899;c h&#7853;u phi&#234;n tr&#432;&#7899;c &#273;&#243; th&#7845;t b&#7841;i.</text><!--SRC=[ZLRFQ-D65BxhhtZDAG4xfvxsK73zenWIsusTNReiXF5eOWsHPjJHA5ltscCfjFHGbZrqJIYbxOPkwqB1elIWPVyF_ITzCnfRKk8iFKaQlU_Dc-zzxvC-u8A6gS-01YJMJBK_R2Tw6RBZE8r2JtCTCfYf_BK8G1VP7_3sktmj5X07FFzLjE3pT5bi_jMWPRuIG8li6mhN-IkCtQma1hzR2O-aMeeqcZFbUJ5HcbCU4w7Xe9DIpQMOiYGn5nemFmsPEW2ImExfVP0JVideaeRiYLHN3bZUxaMTCPydKwQkEMKsrYvuFj5aJX861wVBwQSdzeszUs1hZPn4JEXwfcgr2PfK3_k1UmEQEPwGC6GDKBdIZ1ehdwbwa5tOUuIFbIG-9KaZvsxHytRSG_kZaWbu13f_7K5IyWwTxcpuk8_znUOB2B3PmYi3smYfy8_09wYS95_HO0iU-fuNIXd3QP7zm6kh08sDoqPYYaikICY_PBsKkRuVShy5GZu_GemBgrLw5UHh0asbm61y1kUJNcVMRs2i0X2pC0INCjH4CzpWoCD04ceNmeG_un6EIVwdW2Bx4VIxDoZk1OI4Oo2ui7Qzy4IGE0caDaDpOuRXJP7TK5XmuYWpkFlr8wlPzvXvNcGlgXncgXQyo7vtv3V0TqWVn-Re93ncKQoNXuOc5gB0ttvhwwWrpIGnX-pcQqZCoTrC03nmfWNFLosOSn_5rGAj26L3R8QZn-BiLgV5vYVz_r8gr85OkFVxwK1NQH21-yFZpicm1vH8487PhDnR-0-mIcKKSGtzKQ_VkvYUTxlzwHG2MMp-fcvnq1cUz7lFXFKlPUXPW0xo5OUvCxUV2IJ5vaQW_HMRNwBtjQ0RoeITiIGDjMVZ6jgkHjt8n3uCdChzhSQL1H-Lu2g-TgGGZxs4-eHRTGxEna_x8ukpSpOhij-CPLTnZkjcrhrEj2jlB5Wjm0vWlK1u06xwRCtAT00_CAbYxYlnd0l1r3FXMg1Oo8m7boyDUMghY19Vjo95H4BiU5jrlA26Yjjufu2Th2VsCsMw-0fjYEP_8G-clMWHvlOkNNSfiHPgAbSCTJnGCfhAL55ss3d76HoFMfLxRMae8VLYxPVGJvTEfY1jn0GrDnnzSZ7fV7RQ7ysQfJUhs7gKZzG8Dr8wO1BcBD5jTdafbRuliPsV8tAAMiToBwpElN8ZkvcGc4jU8sA7RPNVZIfNKcIt17yFq7hiPRDQMjQ_HaQlYcnj7xw2Bp0CmloV-tfCyhNsN9jBDh1RE5Kb4GBTA8MvySQNrBZIRUh-Bh3FRjNyTE2HBNrpWpqsvOEf_Zy0]--></g></svg>